<?xml version="1.0" standalone="no"?>
<!DOCTYPE svg PUBLIC "-//W3C//DTD SVG 20010904//EN"
 "http://www.w3.org/TR/2001/REC-SVG-20010904/DTD/svg10.dtd">
<svg version="1.0" xmlns="http://www.w3.org/2000/svg"
 width="256.000000pt" height="256.000000pt" viewBox="0 0 256.000000 256.000000"
 preserveAspectRatio="xMidYMid meet">
<metadata>
Created by potrace 1.14, written by Peter Selinger 2001-2017
</metadata>
<g transform="translate(0.000000,256.000000) scale(0.100000,-0.100000)"
fill="#000000" stroke="none">
<path d="M399 2383 c-99 -25 -192 -117 -221 -216 -18 -66 -19 -1695 0 -1761
28 -99 82 -162 180 -208 l62 -30 853 1 c468 0 861 2 872 5 111 25 209 121 237
232 18 69 18 1698 0 1759 -27 95 -115 187 -207 216 -60 19 -1701 21 -1776 2z
m781 -243 c11 -17 11 -9 11 -430 0 -280 -2 -326 -15 -336 -11 -8 -126 -11
-381 -10 -313 1 -367 3 -375 16 -11 18 -11 19 -11 412 0 320 2 337 44 355 10
5 176 9 368 8 300 0 351 -2 359 -15z m938 0 c12 -8 25 -23 28 -33 5 -15 7
-284 4 -612 0 -55 -5 -107 -10 -115 -8 -13 -61 -15 -373 -16 -278 -1 -368 2
-381 12 -16 11 -17 43 -17 379 0 313 2 370 15 384 14 15 51 17 363 16 288 -1
352 -3 371 -15z m-939 -954 c18 -21 18 -741 0 -762 -9 -12 -70 -14 -365 -14
-352 0 -353 0 -379 23 l-27 22 0 358 c0 264 4 362 12 373 18 21 742 21 759 0z
m961 0 c8 -11 12 -109 12 -371 0 -357 0 -357 -23 -381 l-22 -24 -358 0 c-293
0 -359 2 -368 14 -17 21 -18 741 -1 761 18 22 741 22 760 1z"/>
</g>
</svg>
